<mxfile host="app.diagrams.net" modified="2024-05-17T02:21:25.627Z" agent="Mozilla/5.0 (Windows NT 10.0; Win64; x64) AppleWebKit/537.36 (KHTML, like Gecko) Chrome/123.0.0.0 Safari/537.36" etag="XMabew8G5fJXw_GYK5rj" version="24.4.3" type="github">
  <diagram name="Trang-1" id="-OMjRQJ6ECQ6Ld0o3vSd">
    <mxGraphModel dx="3088" dy="3152" grid="0" gridSize="10" guides="1" tooltips="1" connect="1" arrows="1" fold="1" page="1" pageScale="1" pageWidth="827" pageHeight="1169" math="0" shadow="0">
      <root>
        <mxCell id="0" />
        <mxCell id="1" parent="0" />
        <mxCell id="a314YMCbwCCtNOpa4sMv-1" value="-" style="swimlane;" parent="1" vertex="1">
          <mxGeometry x="-234" y="-2094" width="353" height="2133" as="geometry" />
        </mxCell>
        <mxCell id="AlrmG7oSK0NpYNFLvovy-58" value="2.1.2 HIển thị trang tìm kiếm" style="rounded=1;whiteSpace=wrap;html=1;arcSize=40;fontColor=#000000;fillColor=#ffffc0;strokeColor=#ff0000;" vertex="1" parent="a314YMCbwCCtNOpa4sMv-1">
          <mxGeometry x="53" y="327" width="120" height="40" as="geometry" />
        </mxCell>
        <mxCell id="AlrmG7oSK0NpYNFLvovy-71" style="edgeStyle=orthogonalEdgeStyle;rounded=0;orthogonalLoop=1;jettySize=auto;html=1;exitX=0.5;exitY=1;exitDx=0;exitDy=0;" edge="1" parent="a314YMCbwCCtNOpa4sMv-1" source="AlrmG7oSK0NpYNFLvovy-64">
          <mxGeometry relative="1" as="geometry">
            <mxPoint x="113" y="660" as="targetPoint" />
          </mxGeometry>
        </mxCell>
        <mxCell id="AlrmG7oSK0NpYNFLvovy-64" value="Kiểm tra CSDL" style="rhombus;whiteSpace=wrap;html=1;fontColor=#000000;fillColor=#ffffc0;strokeColor=#ff0000;" vertex="1" parent="a314YMCbwCCtNOpa4sMv-1">
          <mxGeometry x="66" y="550" width="94" height="49" as="geometry" />
        </mxCell>
        <mxCell id="AlrmG7oSK0NpYNFLvovy-65" value="Sai" style="edgeStyle=orthogonalEdgeStyle;html=1;align=left;verticalAlign=bottom;endArrow=open;endSize=8;strokeColor=#ff0000;rounded=0;" edge="1" source="AlrmG7oSK0NpYNFLvovy-64" parent="a314YMCbwCCtNOpa4sMv-1">
          <mxGeometry x="-1" relative="1" as="geometry">
            <mxPoint x="249" y="579" as="targetPoint" />
          </mxGeometry>
        </mxCell>
        <mxCell id="AlrmG7oSK0NpYNFLvovy-61" value="" style="edgeStyle=orthogonalEdgeStyle;html=1;verticalAlign=bottom;endArrow=open;endSize=8;strokeColor=#ff0000;rounded=0;entryX=0.074;entryY=0.531;entryDx=0;entryDy=0;entryPerimeter=0;" edge="1" parent="a314YMCbwCCtNOpa4sMv-1">
          <mxGeometry relative="1" as="geometry">
            <mxPoint x="65.99600000000012" y="575.019" as="targetPoint" />
            <mxPoint x="-166.95999999999998" y="485" as="sourcePoint" />
            <Array as="points">
              <mxPoint x="-166.95999999999998" y="575" />
            </Array>
          </mxGeometry>
        </mxCell>
        <mxCell id="AlrmG7oSK0NpYNFLvovy-67" value="2.1.4 Hiển thị đơn hàng" style="rounded=1;whiteSpace=wrap;html=1;arcSize=40;fontColor=#000000;fillColor=#ffffc0;strokeColor=#ff0000;" vertex="1" parent="a314YMCbwCCtNOpa4sMv-1">
          <mxGeometry x="55" y="660" width="120" height="40" as="geometry" />
        </mxCell>
        <mxCell id="AlrmG7oSK0NpYNFLvovy-72" value="Đúng" style="text;html=1;align=center;verticalAlign=middle;resizable=0;points=[];autosize=1;strokeColor=none;fillColor=none;" vertex="1" parent="a314YMCbwCCtNOpa4sMv-1">
          <mxGeometry x="110" y="601" width="47" height="26" as="geometry" />
        </mxCell>
        <mxCell id="a314YMCbwCCtNOpa4sMv-2" value="User   " style="swimlane;" parent="1" vertex="1">
          <mxGeometry x="-730" y="-2094" width="496" height="850" as="geometry" />
        </mxCell>
        <mxCell id="a314YMCbwCCtNOpa4sMv-4" value="" style="ellipse;html=1;shape=startState;fillColor=#000000;strokeColor=#ff0000;" parent="a314YMCbwCCtNOpa4sMv-2" vertex="1">
          <mxGeometry x="82" y="46" width="30" height="30" as="geometry" />
        </mxCell>
        <mxCell id="a314YMCbwCCtNOpa4sMv-5" value="" style="edgeStyle=orthogonalEdgeStyle;html=1;verticalAlign=bottom;endArrow=open;endSize=8;strokeColor=#ff0000;rounded=0;entryX=0.5;entryY=0;entryDx=0;entryDy=0;" parent="a314YMCbwCCtNOpa4sMv-2" source="a314YMCbwCCtNOpa4sMv-4" edge="1" target="a314YMCbwCCtNOpa4sMv-6">
          <mxGeometry relative="1" as="geometry">
            <mxPoint x="95" y="130" as="targetPoint" />
          </mxGeometry>
        </mxCell>
        <mxCell id="AlrmG7oSK0NpYNFLvovy-54" style="edgeStyle=orthogonalEdgeStyle;rounded=0;orthogonalLoop=1;jettySize=auto;html=1;exitX=0.5;exitY=1;exitDx=0;exitDy=0;entryX=0.5;entryY=0;entryDx=0;entryDy=0;" edge="1" parent="a314YMCbwCCtNOpa4sMv-2" source="a314YMCbwCCtNOpa4sMv-6" target="AlrmG7oSK0NpYNFLvovy-47">
          <mxGeometry relative="1" as="geometry">
            <mxPoint x="97" y="228" as="targetPoint" />
          </mxGeometry>
        </mxCell>
        <mxCell id="a314YMCbwCCtNOpa4sMv-6" value="1. Click vào quản lý đơn hàng" style="rounded=1;whiteSpace=wrap;html=1;arcSize=40;fontColor=#000000;fillColor=#ffffc0;strokeColor=#ff0000;" parent="a314YMCbwCCtNOpa4sMv-2" vertex="1">
          <mxGeometry x="37" y="130" width="120" height="40" as="geometry" />
        </mxCell>
        <mxCell id="AlrmG7oSK0NpYNFLvovy-51" style="edgeStyle=orthogonalEdgeStyle;rounded=0;orthogonalLoop=1;jettySize=auto;html=1;exitX=1;exitY=0.5;exitDx=0;exitDy=0;" edge="1" parent="a314YMCbwCCtNOpa4sMv-2" source="AlrmG7oSK0NpYNFLvovy-47">
          <mxGeometry relative="1" as="geometry">
            <mxPoint x="277" y="255" as="targetPoint" />
          </mxGeometry>
        </mxCell>
        <mxCell id="AlrmG7oSK0NpYNFLvovy-47" value="" style="rhombus;whiteSpace=wrap;html=1;fontColor=#000000;fillColor=#ffffc0;strokeColor=#ff0000;" vertex="1" parent="a314YMCbwCCtNOpa4sMv-2">
          <mxGeometry x="54.5" y="233" width="85" height="45" as="geometry" />
        </mxCell>
        <mxCell id="AlrmG7oSK0NpYNFLvovy-49" value="yes" style="edgeStyle=orthogonalEdgeStyle;html=1;align=left;verticalAlign=top;endArrow=open;endSize=8;strokeColor=#ff0000;rounded=0;" edge="1" source="AlrmG7oSK0NpYNFLvovy-47" parent="a314YMCbwCCtNOpa4sMv-2">
          <mxGeometry x="-1" relative="1" as="geometry">
            <mxPoint x="94" y="326" as="targetPoint" />
          </mxGeometry>
        </mxCell>
        <mxCell id="AlrmG7oSK0NpYNFLvovy-56" value="2.1 Click vào tìm kiếm đơn hàng" style="rounded=1;whiteSpace=wrap;html=1;arcSize=40;fontColor=#000000;fillColor=#ffffc0;strokeColor=#ff0000;" vertex="1" parent="a314YMCbwCCtNOpa4sMv-2">
          <mxGeometry x="276" y="237" width="120" height="40" as="geometry" />
        </mxCell>
        <mxCell id="AlrmG7oSK0NpYNFLvovy-60" value="2.1.3 Nhập và click tìm kiếm" style="rounded=1;whiteSpace=wrap;html=1;arcSize=40;fontColor=#000000;fillColor=#ffffc0;strokeColor=#ff0000;" vertex="1" parent="a314YMCbwCCtNOpa4sMv-2">
          <mxGeometry x="276" y="446" width="120" height="40" as="geometry" />
        </mxCell>
        <UserObject label="Quản lý đơn hàng" treeRoot="1" id="a314YMCbwCCtNOpa4sMv-3">
          <mxCell style="whiteSpace=wrap;html=1;align=center;treeFolding=1;treeMoving=1;newEdgeStyle={&quot;edgeStyle&quot;:&quot;elbowEdgeStyle&quot;,&quot;startArrow&quot;:&quot;none&quot;,&quot;endArrow&quot;:&quot;none&quot;};" parent="1" vertex="1">
            <mxGeometry x="-433" y="-2133" width="400" height="40" as="geometry" />
          </mxCell>
        </UserObject>
        <mxCell id="a314YMCbwCCtNOpa4sMv-8" value="Back-end" style="swimlane;whiteSpace=wrap;html=1;startSize=30;strokeColor=#FF3333;" parent="1" vertex="1">
          <mxGeometry x="319" y="529" width="290" height="550" as="geometry" />
        </mxCell>
        <mxCell id="GdnQNw3ZFEXEEvJICDwu-1" style="edgeStyle=none;curved=1;rounded=0;orthogonalLoop=1;jettySize=auto;html=1;exitX=0.75;exitY=1;exitDx=0;exitDy=0;fontSize=12;startSize=8;endSize=8;" parent="a314YMCbwCCtNOpa4sMv-8" edge="1">
          <mxGeometry relative="1" as="geometry">
            <mxPoint x="175" y="319" as="sourcePoint" />
            <mxPoint x="175" y="319" as="targetPoint" />
          </mxGeometry>
        </mxCell>
        <mxCell id="GdnQNw3ZFEXEEvJICDwu-2" value="2. Hiển thị danh mục" style="rounded=1;whiteSpace=wrap;html=1;arcSize=40;fontColor=#000000;fillColor=#ffffc0;strokeColor=#ff0000;" parent="a314YMCbwCCtNOpa4sMv-8" vertex="1">
          <mxGeometry x="85" y="170" width="120" height="40" as="geometry" />
        </mxCell>
        <mxCell id="GdnQNw3ZFEXEEvJICDwu-13" value="" style="ellipse;html=1;shape=endState;fillColor=#000000;strokeColor=#ff0000;" parent="a314YMCbwCCtNOpa4sMv-8" vertex="1">
          <mxGeometry x="120" y="500" width="30" height="30" as="geometry" />
        </mxCell>
        <mxCell id="GdnQNw3ZFEXEEvJICDwu-12" value="" style="edgeStyle=none;curved=1;rounded=0;orthogonalLoop=1;jettySize=auto;html=1;fontSize=12;startSize=8;endSize=8;strokeColor=#FF3333;" parent="a314YMCbwCCtNOpa4sMv-8" edge="1">
          <mxGeometry relative="1" as="geometry">
            <mxPoint x="134.5" y="360" as="sourcePoint" />
            <mxPoint x="134.5" y="500" as="targetPoint" />
          </mxGeometry>
        </mxCell>
        <mxCell id="a314YMCbwCCtNOpa4sMv-9" value="User" style="swimlane;whiteSpace=wrap;html=1;startSize=30;strokeColor=#FF3333;" parent="1" vertex="1">
          <mxGeometry x="29" y="529" width="290" height="550" as="geometry">
            <mxRectangle x="-420" y="850" width="50" height="30" as="alternateBounds" />
          </mxGeometry>
        </mxCell>
        <mxCell id="GdnQNw3ZFEXEEvJICDwu-6" value="" style="edgeStyle=none;curved=1;rounded=0;orthogonalLoop=1;jettySize=auto;html=1;fontSize=12;startSize=8;endSize=8;strokeColor=#FF3333;" parent="a314YMCbwCCtNOpa4sMv-9" source="a314YMCbwCCtNOpa4sMv-13" target="a314YMCbwCCtNOpa4sMv-23" edge="1">
          <mxGeometry relative="1" as="geometry" />
        </mxCell>
        <mxCell id="a314YMCbwCCtNOpa4sMv-13" value="" style="ellipse;html=1;shape=startState;fillColor=#000000;strokeColor=#ff0000;" parent="a314YMCbwCCtNOpa4sMv-9" vertex="1">
          <mxGeometry x="130" y="50" width="30" height="30" as="geometry" />
        </mxCell>
        <mxCell id="a314YMCbwCCtNOpa4sMv-23" value="1. Di chuyển vào danh mục cần tìm" style="rounded=1;whiteSpace=wrap;html=1;arcSize=40;fontColor=#000000;fillColor=#ffffc0;strokeColor=#ff0000;" parent="a314YMCbwCCtNOpa4sMv-9" vertex="1">
          <mxGeometry x="85" y="130" width="120" height="40" as="geometry" />
        </mxCell>
        <mxCell id="GdnQNw3ZFEXEEvJICDwu-4" value="3. Click vào danh mục" style="rounded=1;whiteSpace=wrap;html=1;arcSize=40;fontColor=#000000;fillColor=#ffffc0;strokeColor=default;" parent="a314YMCbwCCtNOpa4sMv-9" vertex="1">
          <mxGeometry x="85" y="250" width="120" height="50" as="geometry" />
        </mxCell>
        <mxCell id="GdnQNw3ZFEXEEvJICDwu-9" value="4. Hiện thị danh sách các sản phảm" style="rounded=1;whiteSpace=wrap;html=1;arcSize=40;fontColor=#000000;fillColor=#ffffc0;strokeColor=#ff0000;" parent="a314YMCbwCCtNOpa4sMv-9" vertex="1">
          <mxGeometry x="370" y="319" width="120" height="40" as="geometry" />
        </mxCell>
        <mxCell id="yLLiL2UM6zWqzcdMJtat-74" value="" style="rounded=0;orthogonalLoop=1;jettySize=auto;html=1;strokeColor=#FF3333;" parent="a314YMCbwCCtNOpa4sMv-9" edge="1">
          <mxGeometry relative="1" as="geometry">
            <mxPoint x="434.40999999999997" y="209.99999999999955" as="sourcePoint" />
            <mxPoint x="200" y="275" as="targetPoint" />
            <Array as="points">
              <mxPoint x="434" y="275" />
            </Array>
          </mxGeometry>
        </mxCell>
        <mxCell id="yLLiL2UM6zWqzcdMJtat-77" value="" style="edgeStyle=orthogonalEdgeStyle;rounded=0;orthogonalLoop=1;jettySize=auto;html=1;entryX=0;entryY=0.5;entryDx=0;entryDy=0;exitX=0.436;exitY=1.082;exitDx=0;exitDy=0;exitPerimeter=0;strokeColor=#FF3333;" parent="a314YMCbwCCtNOpa4sMv-9" source="GdnQNw3ZFEXEEvJICDwu-4" edge="1">
          <mxGeometry relative="1" as="geometry">
            <mxPoint x="140" y="319" as="sourcePoint" />
            <mxPoint x="370" y="339" as="targetPoint" />
            <Array as="points">
              <mxPoint x="140" y="304" />
              <mxPoint x="140" y="339" />
            </Array>
          </mxGeometry>
        </mxCell>
        <mxCell id="a314YMCbwCCtNOpa4sMv-10" value="Tìm kiếm sản phẩm theo danh mục" style="rounded=0;whiteSpace=wrap;html=1;strokeColor=#FF3333;" parent="1" vertex="1">
          <mxGeometry x="29" y="489" width="580" height="40" as="geometry" />
        </mxCell>
        <mxCell id="yLLiL2UM6zWqzcdMJtat-1" value="User" style="swimlane;whiteSpace=wrap;html=1;strokeColor=#FF3333;" parent="1" vertex="1">
          <mxGeometry x="99" y="1572" width="210" height="470" as="geometry" />
        </mxCell>
        <mxCell id="yLLiL2UM6zWqzcdMJtat-4" value="" style="ellipse;html=1;shape=startState;fillColor=#000000;strokeColor=#ff0000;" parent="yLLiL2UM6zWqzcdMJtat-1" vertex="1">
          <mxGeometry x="85" y="30" width="30" height="30" as="geometry" />
        </mxCell>
        <mxCell id="yLLiL2UM6zWqzcdMJtat-5" value="" style="edgeStyle=orthogonalEdgeStyle;html=1;verticalAlign=bottom;endArrow=open;endSize=8;strokeColor=#ff0000;rounded=0;" parent="yLLiL2UM6zWqzcdMJtat-1" source="yLLiL2UM6zWqzcdMJtat-4" edge="1">
          <mxGeometry relative="1" as="geometry">
            <mxPoint x="100" y="110" as="targetPoint" />
          </mxGeometry>
        </mxCell>
        <mxCell id="yLLiL2UM6zWqzcdMJtat-66" value="" style="edgeStyle=orthogonalEdgeStyle;rounded=0;orthogonalLoop=1;jettySize=auto;html=1;" parent="yLLiL2UM6zWqzcdMJtat-1" source="yLLiL2UM6zWqzcdMJtat-6" target="yLLiL2UM6zWqzcdMJtat-63" edge="1">
          <mxGeometry relative="1" as="geometry" />
        </mxCell>
        <mxCell id="yLLiL2UM6zWqzcdMJtat-6" value="1. Nhập tên sản phẩm cần tìm" style="rounded=1;whiteSpace=wrap;html=1;arcSize=40;fontColor=#000000;fillColor=#ffffc0;strokeColor=#ff0000;" parent="yLLiL2UM6zWqzcdMJtat-1" vertex="1">
          <mxGeometry x="40" y="110" width="120" height="50" as="geometry" />
        </mxCell>
        <mxCell id="yLLiL2UM6zWqzcdMJtat-63" value="2. Click vào tìm kiếm" style="rounded=1;whiteSpace=wrap;html=1;arcSize=40;fontColor=#000000;fillColor=#ffffc0;strokeColor=#ff0000;" parent="yLLiL2UM6zWqzcdMJtat-1" vertex="1">
          <mxGeometry x="40" y="200" width="120" height="40" as="geometry" />
        </mxCell>
        <mxCell id="yLLiL2UM6zWqzcdMJtat-69" value="" style="endArrow=block;dashed=1;endFill=0;endSize=12;html=1;rounded=0;" parent="yLLiL2UM6zWqzcdMJtat-1" source="yLLiL2UM6zWqzcdMJtat-6" edge="1">
          <mxGeometry width="160" relative="1" as="geometry">
            <mxPoint x="370" y="-1435" as="sourcePoint" />
            <mxPoint x="280" y="135" as="targetPoint" />
          </mxGeometry>
        </mxCell>
        <mxCell id="yLLiL2UM6zWqzcdMJtat-2" value="Back-end" style="swimlane;whiteSpace=wrap;html=1;strokeColor=#FF3333;" parent="1" vertex="1">
          <mxGeometry x="309" y="1572" width="210" height="470" as="geometry" />
        </mxCell>
        <mxCell id="yLLiL2UM6zWqzcdMJtat-17" style="edgeStyle=orthogonalEdgeStyle;rounded=0;orthogonalLoop=1;jettySize=auto;html=1;exitX=1;exitY=0.5;exitDx=0;exitDy=0;strokeColor=#FF3333;" parent="yLLiL2UM6zWqzcdMJtat-2" source="yLLiL2UM6zWqzcdMJtat-11" edge="1">
          <mxGeometry relative="1" as="geometry">
            <mxPoint x="120" y="420" as="targetPoint" />
            <Array as="points">
              <mxPoint x="191" y="220" />
              <mxPoint x="191" y="420" />
            </Array>
          </mxGeometry>
        </mxCell>
        <mxCell id="yLLiL2UM6zWqzcdMJtat-67" value="" style="edgeStyle=orthogonalEdgeStyle;rounded=0;orthogonalLoop=1;jettySize=auto;html=1;strokeColor=#FF3333;" parent="yLLiL2UM6zWqzcdMJtat-2" source="yLLiL2UM6zWqzcdMJtat-11" target="yLLiL2UM6zWqzcdMJtat-14" edge="1">
          <mxGeometry relative="1" as="geometry" />
        </mxCell>
        <mxCell id="yLLiL2UM6zWqzcdMJtat-11" value="Từ khoá" style="rhombus;whiteSpace=wrap;html=1;fontColor=#000000;fillColor=#ffffc0;strokeColor=#ff0000;" parent="yLLiL2UM6zWqzcdMJtat-2" vertex="1">
          <mxGeometry x="65" y="240" width="80" height="40" as="geometry" />
        </mxCell>
        <mxCell id="yLLiL2UM6zWqzcdMJtat-14" value="3. Hiển thị danh sách các sản phẩm" style="rounded=1;whiteSpace=wrap;html=1;arcSize=40;fontColor=#000000;fillColor=#ffffc0;strokeColor=#ff0000;" parent="yLLiL2UM6zWqzcdMJtat-2" vertex="1">
          <mxGeometry x="45" y="330" width="120" height="40" as="geometry" />
        </mxCell>
        <mxCell id="yLLiL2UM6zWqzcdMJtat-15" value="" style="edgeStyle=orthogonalEdgeStyle;html=1;verticalAlign=bottom;endArrow=open;endSize=8;strokeColor=#ff0000;rounded=0;entryX=0.5;entryY=0;entryDx=0;entryDy=0;" parent="yLLiL2UM6zWqzcdMJtat-2" source="yLLiL2UM6zWqzcdMJtat-14" target="yLLiL2UM6zWqzcdMJtat-16" edge="1">
          <mxGeometry relative="1" as="geometry">
            <mxPoint x="100" y="400" as="targetPoint" />
            <Array as="points">
              <mxPoint x="100" y="390" />
              <mxPoint x="100" y="390" />
            </Array>
          </mxGeometry>
        </mxCell>
        <mxCell id="yLLiL2UM6zWqzcdMJtat-16" value="" style="ellipse;html=1;shape=endState;fillColor=#000000;strokeColor=#ff0000;" parent="yLLiL2UM6zWqzcdMJtat-2" vertex="1">
          <mxGeometry x="85" y="400" width="30" height="30" as="geometry" />
        </mxCell>
        <mxCell id="yLLiL2UM6zWqzcdMJtat-18" value="&lt;font style=&quot;font-size: 11px;&quot;&gt;Không hợp lệ&lt;/font&gt;" style="text;html=1;align=center;verticalAlign=middle;resizable=0;points=[];autosize=1;strokeColor=none;fillColor=none;" parent="yLLiL2UM6zWqzcdMJtat-2" vertex="1">
          <mxGeometry x="125" y="190" width="90" height="30" as="geometry" />
        </mxCell>
        <mxCell id="yLLiL2UM6zWqzcdMJtat-68" value="hợp lệ" style="text;html=1;align=center;verticalAlign=middle;resizable=0;points=[];autosize=1;strokeColor=none;fillColor=none;" parent="yLLiL2UM6zWqzcdMJtat-2" vertex="1">
          <mxGeometry x="100" y="280" width="60" height="30" as="geometry" />
        </mxCell>
        <mxCell id="yLLiL2UM6zWqzcdMJtat-70" value="Từ khoá gợi ý" style="rounded=1;whiteSpace=wrap;html=1;arcSize=40;fontColor=#000000;fillColor=#ffffc0;strokeColor=#ff0000;" parent="yLLiL2UM6zWqzcdMJtat-2" vertex="1">
          <mxGeometry x="70" y="110" width="120" height="50" as="geometry" />
        </mxCell>
        <mxCell id="yLLiL2UM6zWqzcdMJtat-3" value="Tìm kiếm sản phẩm theo tên" style="html=1;whiteSpace=wrap;strokeColor=#FF3333;" parent="1" vertex="1">
          <mxGeometry x="99" y="1542" width="420" height="30" as="geometry" />
        </mxCell>
        <mxCell id="yLLiL2UM6zWqzcdMJtat-7" value="" style="edgeStyle=orthogonalEdgeStyle;html=1;verticalAlign=bottom;endArrow=open;endSize=8;strokeColor=#ff0000;rounded=0;entryX=0;entryY=0.5;entryDx=0;entryDy=0;" parent="1" target="yLLiL2UM6zWqzcdMJtat-11" edge="1">
          <mxGeometry relative="1" as="geometry">
            <mxPoint x="349" y="1822.0000000000005" as="targetPoint" />
            <mxPoint x="199" y="1812" as="sourcePoint" />
            <Array as="points">
              <mxPoint x="199" y="1832" />
            </Array>
          </mxGeometry>
        </mxCell>
        <mxCell id="yLLiL2UM6zWqzcdMJtat-19" value="User" style="swimlane;whiteSpace=wrap;html=1;strokeColor=#FF3333;" parent="1" vertex="1">
          <mxGeometry x="-812" y="1213" width="365" height="895" as="geometry" />
        </mxCell>
        <mxCell id="yLLiL2UM6zWqzcdMJtat-22" value="" style="ellipse;html=1;shape=startState;fillColor=#000000;strokeColor=#ff0000;" parent="yLLiL2UM6zWqzcdMJtat-19" vertex="1">
          <mxGeometry x="220" y="40" width="30" height="30" as="geometry" />
        </mxCell>
        <mxCell id="yLLiL2UM6zWqzcdMJtat-23" value="" style="edgeStyle=orthogonalEdgeStyle;html=1;verticalAlign=bottom;endArrow=open;endSize=8;strokeColor=#ff0000;rounded=0;entryX=0.5;entryY=0;entryDx=0;entryDy=0;" parent="yLLiL2UM6zWqzcdMJtat-19" source="yLLiL2UM6zWqzcdMJtat-22" target="yLLiL2UM6zWqzcdMJtat-24" edge="1">
          <mxGeometry relative="1" as="geometry">
            <mxPoint x="100" y="120" as="targetPoint" />
          </mxGeometry>
        </mxCell>
        <mxCell id="yLLiL2UM6zWqzcdMJtat-24" value="1. Click vào mua ngay" style="rounded=1;whiteSpace=wrap;html=1;arcSize=40;fontColor=#000000;fillColor=#ffffc0;strokeColor=#ff0000;" parent="yLLiL2UM6zWqzcdMJtat-19" vertex="1">
          <mxGeometry x="175" y="118" width="120" height="40" as="geometry" />
        </mxCell>
        <mxCell id="yLLiL2UM6zWqzcdMJtat-35" value="3. Nhập các thông tin" style="rounded=1;whiteSpace=wrap;html=1;arcSize=40;fontColor=#000000;fillColor=#ffffc0;strokeColor=#ff0000;" parent="yLLiL2UM6zWqzcdMJtat-19" vertex="1">
          <mxGeometry x="175" y="290" width="120" height="40" as="geometry" />
        </mxCell>
        <mxCell id="yLLiL2UM6zWqzcdMJtat-53" value="" style="edgeStyle=orthogonalEdgeStyle;html=1;verticalAlign=bottom;endArrow=open;endSize=8;strokeColor=#ff0000;rounded=0;exitX=0.5;exitY=1;exitDx=0;exitDy=0;entryX=0.5;entryY=0;entryDx=0;entryDy=0;" parent="yLLiL2UM6zWqzcdMJtat-19" source="yLLiL2UM6zWqzcdMJtat-35" target="yLLiL2UM6zWqzcdMJtat-54" edge="1">
          <mxGeometry relative="1" as="geometry">
            <mxPoint x="185" y="410" as="targetPoint" />
            <mxPoint x="185.0769230769231" y="340" as="sourcePoint" />
            <Array as="points">
              <mxPoint x="235" y="370" />
              <mxPoint x="235" y="370" />
            </Array>
          </mxGeometry>
        </mxCell>
        <mxCell id="yLLiL2UM6zWqzcdMJtat-54" value="4. Đặt hàng" style="rounded=1;whiteSpace=wrap;html=1;arcSize=40;fontColor=#000000;fillColor=#ffffc0;strokeColor=#ff0000;" parent="yLLiL2UM6zWqzcdMJtat-19" vertex="1">
          <mxGeometry x="175" y="390" width="120" height="50" as="geometry" />
        </mxCell>
        <mxCell id="yLLiL2UM6zWqzcdMJtat-93" value="" style="edgeStyle=orthogonalEdgeStyle;rounded=0;orthogonalLoop=1;jettySize=auto;html=1;strokeColor=#FF0000;" parent="yLLiL2UM6zWqzcdMJtat-19" source="yLLiL2UM6zWqzcdMJtat-90" target="yLLiL2UM6zWqzcdMJtat-92" edge="1">
          <mxGeometry relative="1" as="geometry" />
        </mxCell>
        <mxCell id="yLLiL2UM6zWqzcdMJtat-90" value="6. Hiện thị đặt hàng thành công" style="rounded=1;whiteSpace=wrap;html=1;arcSize=40;fontColor=#000000;fillColor=#ffffc0;strokeColor=#ff0000;" parent="yLLiL2UM6zWqzcdMJtat-19" vertex="1">
          <mxGeometry x="175" y="708" width="120" height="50" as="geometry" />
        </mxCell>
        <mxCell id="yLLiL2UM6zWqzcdMJtat-92" value="" style="ellipse;html=1;shape=endState;fillColor=#000000;strokeColor=#ff0000;" parent="yLLiL2UM6zWqzcdMJtat-19" vertex="1">
          <mxGeometry x="220" y="826" width="30" height="30" as="geometry" />
        </mxCell>
        <mxCell id="yLLiL2UM6zWqzcdMJtat-20" value="Back-end" style="swimlane;whiteSpace=wrap;html=1;strokeColor=#FF3333;" parent="1" vertex="1">
          <mxGeometry x="-447" y="1213" width="373" height="895" as="geometry" />
        </mxCell>
        <mxCell id="yLLiL2UM6zWqzcdMJtat-26" value="2. Hiển thị form mua hàng" style="rounded=1;whiteSpace=wrap;html=1;arcSize=40;fontColor=#000000;fillColor=#ffffc0;strokeColor=#ff0000;" parent="yLLiL2UM6zWqzcdMJtat-20" vertex="1">
          <mxGeometry x="140" y="190" width="120" height="40" as="geometry" />
        </mxCell>
        <mxCell id="yLLiL2UM6zWqzcdMJtat-56" value="5. Lưu vào CSDL" style="rounded=1;whiteSpace=wrap;html=1;arcSize=40;fontColor=#000000;fillColor=#ffffc0;strokeColor=#ff0000;" parent="yLLiL2UM6zWqzcdMJtat-20" vertex="1">
          <mxGeometry x="132" y="632" width="120" height="50" as="geometry" />
        </mxCell>
        <mxCell id="yLLiL2UM6zWqzcdMJtat-81" value="Kiểm tra" style="rhombus;whiteSpace=wrap;html=1;fontColor=#000000;fillColor=#ffffc0;strokeColor=#ff0000;" parent="yLLiL2UM6zWqzcdMJtat-20" vertex="1">
          <mxGeometry x="140" y="465" width="100" height="80" as="geometry" />
        </mxCell>
        <mxCell id="yLLiL2UM6zWqzcdMJtat-82" value="Sai" style="edgeStyle=orthogonalEdgeStyle;html=1;align=left;verticalAlign=bottom;endArrow=open;endSize=8;strokeColor=#ff0000;rounded=0;entryX=0.75;entryY=1;entryDx=0;entryDy=0;" parent="yLLiL2UM6zWqzcdMJtat-20" source="yLLiL2UM6zWqzcdMJtat-81" target="yLLiL2UM6zWqzcdMJtat-26" edge="1">
          <mxGeometry x="-1" relative="1" as="geometry">
            <mxPoint x="-410" y="505" as="targetPoint" />
            <Array as="points">
              <mxPoint x="190" y="390" />
              <mxPoint x="230" y="390" />
            </Array>
          </mxGeometry>
        </mxCell>
        <mxCell id="yLLiL2UM6zWqzcdMJtat-83" value="Chính xác" style="edgeStyle=orthogonalEdgeStyle;html=1;align=left;verticalAlign=top;endArrow=open;endSize=8;strokeColor=#ff0000;rounded=0;" parent="yLLiL2UM6zWqzcdMJtat-20" edge="1">
          <mxGeometry x="-1" relative="1" as="geometry">
            <mxPoint x="190" y="632" as="targetPoint" />
            <mxPoint x="189.17" y="545" as="sourcePoint" />
            <Array as="points" />
          </mxGeometry>
        </mxCell>
        <mxCell id="yLLiL2UM6zWqzcdMJtat-21" value="Đặt hàng" style="rounded=0;whiteSpace=wrap;html=1;strokeColor=#FF3333;" parent="1" vertex="1">
          <mxGeometry x="-811" y="1183" width="737" height="30" as="geometry" />
        </mxCell>
        <mxCell id="yLLiL2UM6zWqzcdMJtat-25" value="" style="edgeStyle=orthogonalEdgeStyle;html=1;verticalAlign=bottom;endArrow=open;endSize=8;strokeColor=#ff0000;rounded=0;exitX=0.5;exitY=1;exitDx=0;exitDy=0;" parent="1" source="yLLiL2UM6zWqzcdMJtat-24" target="yLLiL2UM6zWqzcdMJtat-26" edge="1">
          <mxGeometry relative="1" as="geometry">
            <mxPoint x="-497" y="1433" as="targetPoint" />
            <Array as="points">
              <mxPoint x="-577" y="1413" />
            </Array>
          </mxGeometry>
        </mxCell>
        <mxCell id="yLLiL2UM6zWqzcdMJtat-27" value="" style="edgeStyle=orthogonalEdgeStyle;html=1;verticalAlign=bottom;endArrow=open;endSize=8;strokeColor=#ff0000;rounded=0;exitX=0.5;exitY=1;exitDx=0;exitDy=0;entryX=0.5;entryY=0;entryDx=0;entryDy=0;" parent="1" source="yLLiL2UM6zWqzcdMJtat-26" target="yLLiL2UM6zWqzcdMJtat-35" edge="1">
          <mxGeometry relative="1" as="geometry">
            <mxPoint x="-826.9230769230769" y="1513" as="targetPoint" />
            <mxPoint x="-157" y="1442.9999999999995" as="sourcePoint" />
          </mxGeometry>
        </mxCell>
        <mxCell id="yLLiL2UM6zWqzcdMJtat-55" value="" style="edgeStyle=orthogonalEdgeStyle;html=1;verticalAlign=bottom;endArrow=open;endSize=8;strokeColor=#ff0000;rounded=0;" parent="1" source="yLLiL2UM6zWqzcdMJtat-54" target="yLLiL2UM6zWqzcdMJtat-81" edge="1">
          <mxGeometry relative="1" as="geometry">
            <mxPoint x="-597" y="2133" as="targetPoint" />
            <Array as="points">
              <mxPoint x="-577" y="1718" />
            </Array>
          </mxGeometry>
        </mxCell>
        <mxCell id="yLLiL2UM6zWqzcdMJtat-73" value="" style="edgeStyle=orthogonalEdgeStyle;rounded=0;orthogonalLoop=1;jettySize=auto;html=1;entryX=0;entryY=0.5;entryDx=0;entryDy=0;strokeColor=#FF3333;" parent="1" source="a314YMCbwCCtNOpa4sMv-23" target="GdnQNw3ZFEXEEvJICDwu-2" edge="1">
          <mxGeometry relative="1" as="geometry">
            <mxPoint x="179" y="719" as="targetPoint" />
            <Array as="points">
              <mxPoint x="174" y="719" />
            </Array>
          </mxGeometry>
        </mxCell>
        <mxCell id="yLLiL2UM6zWqzcdMJtat-91" value="" style="edgeStyle=orthogonalEdgeStyle;rounded=0;orthogonalLoop=1;jettySize=auto;html=1;fillColor=#e51400;strokeColor=#FF0000;" parent="1" source="yLLiL2UM6zWqzcdMJtat-56" target="yLLiL2UM6zWqzcdMJtat-90" edge="1">
          <mxGeometry relative="1" as="geometry" />
        </mxCell>
        <mxCell id="AlrmG7oSK0NpYNFLvovy-18" value="User" style="swimlane;whiteSpace=wrap;html=1;startSize=23;" vertex="1" parent="1">
          <mxGeometry x="48" y="-2098" width="461" height="675" as="geometry" />
        </mxCell>
        <mxCell id="AlrmG7oSK0NpYNFLvovy-21" value="" style="ellipse;html=1;shape=startState;fillColor=#000000;strokeColor=#ff0000;" vertex="1" parent="AlrmG7oSK0NpYNFLvovy-18">
          <mxGeometry x="86" y="42" width="30" height="30" as="geometry" />
        </mxCell>
        <mxCell id="AlrmG7oSK0NpYNFLvovy-22" value="" style="edgeStyle=orthogonalEdgeStyle;html=1;verticalAlign=bottom;endArrow=open;endSize=8;strokeColor=#ff0000;rounded=0;" edge="1" source="AlrmG7oSK0NpYNFLvovy-21" parent="AlrmG7oSK0NpYNFLvovy-18">
          <mxGeometry relative="1" as="geometry">
            <mxPoint x="101" y="132" as="targetPoint" />
          </mxGeometry>
        </mxCell>
        <mxCell id="AlrmG7oSK0NpYNFLvovy-26" value="Tìm kiếm" style="rhombus;whiteSpace=wrap;html=1;fontColor=#000000;fillColor=#ffffc0;strokeColor=#ff0000;" vertex="1" parent="AlrmG7oSK0NpYNFLvovy-18">
          <mxGeometry x="60" y="131" width="80" height="40" as="geometry" />
        </mxCell>
        <mxCell id="AlrmG7oSK0NpYNFLvovy-27" value="" style="edgeStyle=orthogonalEdgeStyle;html=1;align=left;verticalAlign=bottom;endArrow=open;endSize=8;strokeColor=#ff0000;rounded=0;" edge="1" parent="AlrmG7oSK0NpYNFLvovy-18">
          <mxGeometry x="-1" relative="1" as="geometry">
            <mxPoint x="220" y="151" as="targetPoint" />
            <mxPoint x="140.0028571428573" y="150.73857142857148" as="sourcePoint" />
          </mxGeometry>
        </mxCell>
        <mxCell id="AlrmG7oSK0NpYNFLvovy-28" value="Tên&lt;div&gt;sản&amp;nbsp;&lt;/div&gt;&lt;div&gt;phẩm&lt;/div&gt;" style="edgeStyle=orthogonalEdgeStyle;html=1;align=left;verticalAlign=top;endArrow=open;endSize=8;strokeColor=#ff0000;rounded=0;" edge="1" source="AlrmG7oSK0NpYNFLvovy-26" parent="AlrmG7oSK0NpYNFLvovy-18">
          <mxGeometry x="-1" relative="1" as="geometry">
            <mxPoint x="100" y="231" as="targetPoint" />
          </mxGeometry>
        </mxCell>
        <mxCell id="AlrmG7oSK0NpYNFLvovy-29" value="Danh mục" style="text;html=1;align=center;verticalAlign=middle;resizable=0;points=[];autosize=1;strokeColor=none;fillColor=none;" vertex="1" parent="AlrmG7oSK0NpYNFLvovy-18">
          <mxGeometry x="134" y="131" width="73" height="26" as="geometry" />
        </mxCell>
        <mxCell id="AlrmG7oSK0NpYNFLvovy-30" value="1.1 Click vào danh mục" style="rounded=1;whiteSpace=wrap;html=1;arcSize=40;fontColor=#000000;fillColor=#ffffc0;strokeColor=#ff0000;" vertex="1" parent="AlrmG7oSK0NpYNFLvovy-18">
          <mxGeometry x="219" y="131" width="120" height="40" as="geometry" />
        </mxCell>
        <mxCell id="AlrmG7oSK0NpYNFLvovy-32" value="1.2.1 Nhập tên sản phẩm" style="rounded=1;whiteSpace=wrap;html=1;arcSize=40;fontColor=#000000;fillColor=#ffffc0;strokeColor=#ff0000;" vertex="1" parent="AlrmG7oSK0NpYNFLvovy-18">
          <mxGeometry x="43" y="231" width="120" height="40" as="geometry" />
        </mxCell>
        <mxCell id="AlrmG7oSK0NpYNFLvovy-33" value="" style="edgeStyle=orthogonalEdgeStyle;html=1;verticalAlign=bottom;endArrow=open;endSize=8;strokeColor=#ff0000;rounded=0;" edge="1" source="AlrmG7oSK0NpYNFLvovy-32" parent="AlrmG7oSK0NpYNFLvovy-18">
          <mxGeometry relative="1" as="geometry">
            <mxPoint x="103" y="331" as="targetPoint" />
          </mxGeometry>
        </mxCell>
        <mxCell id="AlrmG7oSK0NpYNFLvovy-34" value="" style="endArrow=block;dashed=1;endFill=0;endSize=12;html=1;rounded=0;" edge="1" parent="AlrmG7oSK0NpYNFLvovy-18">
          <mxGeometry width="160" relative="1" as="geometry">
            <mxPoint x="163" y="250.71" as="sourcePoint" />
            <mxPoint x="503" y="251" as="targetPoint" />
          </mxGeometry>
        </mxCell>
        <mxCell id="AlrmG7oSK0NpYNFLvovy-37" value="1.2.2 Click vào tìm kiếm" style="rounded=1;whiteSpace=wrap;html=1;arcSize=40;fontColor=#000000;fillColor=#ffffc0;strokeColor=#ff0000;" vertex="1" parent="AlrmG7oSK0NpYNFLvovy-18">
          <mxGeometry x="43" y="332" width="120" height="40" as="geometry" />
        </mxCell>
        <mxCell id="AlrmG7oSK0NpYNFLvovy-19" value="Back-end" style="swimlane;whiteSpace=wrap;html=1;startSize=23;" vertex="1" parent="1">
          <mxGeometry x="509" y="-2098" width="200" height="675" as="geometry" />
        </mxCell>
        <mxCell id="AlrmG7oSK0NpYNFLvovy-35" value="Gợi ý từ khóa" style="rounded=1;whiteSpace=wrap;html=1;arcSize=40;fontColor=#000000;fillColor=#ffffc0;strokeColor=#ff0000;" vertex="1" parent="AlrmG7oSK0NpYNFLvovy-19">
          <mxGeometry x="43" y="231" width="120" height="40" as="geometry" />
        </mxCell>
        <mxCell id="AlrmG7oSK0NpYNFLvovy-39" value="Từ khóa" style="rhombus;whiteSpace=wrap;html=1;fontColor=#000000;fillColor=#ffffc0;strokeColor=#ff0000;" vertex="1" parent="AlrmG7oSK0NpYNFLvovy-19">
          <mxGeometry x="23" y="434" width="80" height="40" as="geometry" />
        </mxCell>
        <mxCell id="AlrmG7oSK0NpYNFLvovy-40" value="Không hợp lệ" style="edgeStyle=orthogonalEdgeStyle;html=1;align=left;verticalAlign=bottom;endArrow=open;endSize=8;strokeColor=#ff0000;rounded=0;entryX=1;entryY=0.5;entryDx=0;entryDy=0;" edge="1" parent="AlrmG7oSK0NpYNFLvovy-19">
          <mxGeometry x="-1" relative="1" as="geometry">
            <mxPoint x="77.99999999999454" y="644" as="targetPoint" />
            <mxPoint x="103.00285714285707" y="452.9985714285715" as="sourcePoint" />
            <Array as="points">
              <mxPoint x="103" y="454" />
              <mxPoint x="176" y="454" />
              <mxPoint x="176" y="644" />
            </Array>
          </mxGeometry>
        </mxCell>
        <mxCell id="AlrmG7oSK0NpYNFLvovy-41" value="Hợp lệ" style="edgeStyle=orthogonalEdgeStyle;html=1;align=left;verticalAlign=top;endArrow=open;endSize=8;strokeColor=#ff0000;rounded=0;" edge="1" source="AlrmG7oSK0NpYNFLvovy-39" parent="AlrmG7oSK0NpYNFLvovy-19">
          <mxGeometry x="-1" relative="1" as="geometry">
            <mxPoint x="63" y="536" as="targetPoint" />
          </mxGeometry>
        </mxCell>
        <mxCell id="AlrmG7oSK0NpYNFLvovy-42" value="2. Hiện thị danh sách các sản phẩm" style="rounded=1;whiteSpace=wrap;html=1;arcSize=40;fontColor=#000000;fillColor=#ffffc0;strokeColor=#ff0000;" vertex="1" parent="AlrmG7oSK0NpYNFLvovy-19">
          <mxGeometry x="3" y="534" width="120" height="40" as="geometry" />
        </mxCell>
        <mxCell id="AlrmG7oSK0NpYNFLvovy-43" value="" style="edgeStyle=orthogonalEdgeStyle;html=1;verticalAlign=bottom;endArrow=open;endSize=8;strokeColor=#ff0000;rounded=0;" edge="1" source="AlrmG7oSK0NpYNFLvovy-42" parent="AlrmG7oSK0NpYNFLvovy-19">
          <mxGeometry relative="1" as="geometry">
            <mxPoint x="63" y="634" as="targetPoint" />
          </mxGeometry>
        </mxCell>
        <mxCell id="AlrmG7oSK0NpYNFLvovy-44" value="" style="ellipse;html=1;shape=endState;fillColor=#000000;strokeColor=#ff0000;" vertex="1" parent="AlrmG7oSK0NpYNFLvovy-19">
          <mxGeometry x="48" y="631" width="30" height="30" as="geometry" />
        </mxCell>
        <mxCell id="AlrmG7oSK0NpYNFLvovy-45" style="edgeStyle=orthogonalEdgeStyle;rounded=0;orthogonalLoop=1;jettySize=auto;html=1;strokeColor=#FF3333;" edge="1" parent="AlrmG7oSK0NpYNFLvovy-19">
          <mxGeometry relative="1" as="geometry">
            <mxPoint x="124" y="556" as="targetPoint" />
            <mxPoint x="-122" y="150" as="sourcePoint" />
            <Array as="points">
              <mxPoint x="189" y="150" />
              <mxPoint x="189" y="556" />
            </Array>
          </mxGeometry>
        </mxCell>
        <mxCell id="AlrmG7oSK0NpYNFLvovy-20" value="Tìm kiếm sản phẩm" style="rounded=0;whiteSpace=wrap;html=1;" vertex="1" parent="1">
          <mxGeometry x="48" y="-2134" width="661" height="36" as="geometry" />
        </mxCell>
        <mxCell id="AlrmG7oSK0NpYNFLvovy-38" value="" style="edgeStyle=orthogonalEdgeStyle;html=1;verticalAlign=bottom;endArrow=open;endSize=8;strokeColor=#ff0000;rounded=0;entryX=0;entryY=0.5;entryDx=0;entryDy=0;" edge="1" source="AlrmG7oSK0NpYNFLvovy-37" parent="1" target="AlrmG7oSK0NpYNFLvovy-39">
          <mxGeometry relative="1" as="geometry">
            <mxPoint x="151" y="-1638" as="targetPoint" />
            <Array as="points">
              <mxPoint x="151" y="-1645" />
            </Array>
          </mxGeometry>
        </mxCell>
        <mxCell id="AlrmG7oSK0NpYNFLvovy-57" value="" style="edgeStyle=orthogonalEdgeStyle;html=1;verticalAlign=bottom;endArrow=open;endSize=8;strokeColor=#ff0000;rounded=0;" edge="1" source="AlrmG7oSK0NpYNFLvovy-56" parent="1" target="AlrmG7oSK0NpYNFLvovy-58">
          <mxGeometry relative="1" as="geometry">
            <mxPoint x="-394" y="-1756" as="targetPoint" />
            <Array as="points">
              <mxPoint x="-394" y="-1746" />
            </Array>
          </mxGeometry>
        </mxCell>
        <mxCell id="AlrmG7oSK0NpYNFLvovy-59" value="" style="edgeStyle=orthogonalEdgeStyle;html=1;verticalAlign=bottom;endArrow=open;endSize=8;strokeColor=#ff0000;rounded=0;" edge="1" source="AlrmG7oSK0NpYNFLvovy-58" parent="1" target="AlrmG7oSK0NpYNFLvovy-60">
          <mxGeometry relative="1" as="geometry">
            <mxPoint x="-121" y="-1621" as="targetPoint" />
            <Array as="points">
              <mxPoint x="-121" y="-1627" />
            </Array>
          </mxGeometry>
        </mxCell>
        <mxCell id="AlrmG7oSK0NpYNFLvovy-74" value="" style="edgeStyle=orthogonalEdgeStyle;html=1;verticalAlign=bottom;endArrow=open;endSize=8;strokeColor=#ff0000;rounded=0;" edge="1" source="AlrmG7oSK0NpYNFLvovy-73" parent="1">
          <mxGeometry relative="1" as="geometry">
            <mxPoint x="-866" y="-1789" as="targetPoint" />
          </mxGeometry>
        </mxCell>
        <mxCell id="AlrmG7oSK0NpYNFLvovy-73" value="" style="shape=line;html=1;strokeWidth=6;strokeColor=#ff0000;" vertex="1" parent="1">
          <mxGeometry x="-965" y="-1927" width="200" height="10" as="geometry" />
        </mxCell>
      </root>
    </mxGraphModel>
  </diagram>
</mxfile>
